<?xml version="1.0" encoding="UTF-8"?>
<svg width="100px" height="100px" viewBox="0 0 100 100" version="1.1" xmlns="http://www.w3.org/2000/svg" xmlns:xlink="http://www.w3.org/1999/xlink">
    <!-- Generator: Sketch 50.2 (55047) - http://www.bohemiancoding.com/sketch -->
    <title>Artboard</title>
    <desc>Created with Sketch.</desc>
    <defs></defs>
    <g id="Artboard" stroke="none" stroke-width="1" fill="none" fill-rule="evenodd">
        <g id="noun_avatar_1995019" transform="translate(1.000000, 1.000000)" fill="#F0F0F0" fill-rule="nonzero">
            <path d="M49.3960084,0 C22.1502101,0 0,22.097728 0,49.2789708 C0,76.4602137 22.1502101,98.5579417 49.3960084,98.5579417 C76.6418067,98.5579417 98.7920168,76.4602137 98.7920168,49.2789708 C98.7920168,22.097728 76.6418067,0 49.3960084,0 Z M49.3960084,89.1171283 C39.4128151,89.1171283 30.2615546,85.3823011 23.1901261,79.2613342 C24.230042,70.442992 27.6617647,62.7658471 33.5892857,58.097313 C37.8529412,61.7283951 43.3644958,63.9070443 49.3960084,63.9070443 C55.427521,63.9070443 60.9390756,61.7283951 65.2027311,58.097313 C71.1302521,62.7658471 74.6659664,70.442992 75.6018908,79.2613342 C68.5304622,85.3823011 59.3792017,89.1171283 49.3960084,89.1171283 Z M65.2027311,39.6306671 C65.2027311,48.345264 58.1313025,55.3999378 49.3960084,55.3999378 C40.6607143,55.3999378 33.5892857,48.345264 33.5892857,39.6306671 C33.5892857,30.9160701 40.6607143,23.8613964 49.3960084,23.8613964 C58.1313025,23.8613964 65.2027311,30.9160701 65.2027311,39.6306671 Z" id="Shape"></path>
        </g>
    </g>
</svg>