<?xml version="1.0" encoding="UTF-8"?>
<svg width="1200px" height="299px" viewBox="0 0 1200 299" version="1.1" xmlns="http://www.w3.org/2000/svg" xmlns:xlink="http://www.w3.org/1999/xlink">
    <!-- Generator: Sketch 50.2 (55047) - http://www.bohemiancoding.com/sketch -->
    <title>Artboard</title>
    <desc>Created with Sketch.</desc>
    <defs></defs>
    <g id="Artboard" stroke="none" stroke-width="1" fill="none" fill-rule="evenodd">
        <g id="Group" transform="translate(3.000000, 1.000000)" fill="#61A47A">
            <text id="cycle" font-family="Vollkorn-SemiBold, Vollkorn" font-size="243" font-weight="500">
                <tspan x="621.493" y="238">cycle</tspan>
            </text>
            <text id="R" font-family="Vollkorn-SemiBold, Vollkorn" font-size="243" font-weight="500">
                <tspan x="332.601" y="235">R</tspan>
            </text>
            <text id="e" transform="translate(559.500000, 177.000000) scale(-1, 1) translate(-559.500000, -177.000000) " font-family="Vollkorn-SemiBold, Vollkorn" font-size="243" font-weight="500">
                <tspan x="499.958" y="239">e</tspan>
            </text>
            <path d="M115.527161,207.460296 L116.928704,202.863392 L155.971678,203.063257 L79.4874921,156.094886 L0,201.464334 L41.0451785,201.464334 C43.1808626,203.596231 44.1152244,207.327052 43.8482639,212.656797 C43.5813034,217.320323 43.4478231,220.718035 43.4478231,222.849933 C43.4478231,230.178331 45.8504677,236.307537 50.6557569,241.23755 C56.2619276,247.100269 72.146078,257.759758 98.3082081,273.216016 C125.27122,289.072005 141.822771,297 147.962863,297 C157.173001,297 168.719043,293.402423 182.600989,286.207268 L220.642862,267.020188 L220.642862,261.823688 L185.604295,204.66218 L118.330246,238.839166 C117.662845,238.839166 116.995444,238.6393 116.328043,238.239569 C116.061082,221.850606 115.794122,211.590848 115.527161,207.460296 Z M107.718566,182.676985 L109.72077,187.074024 C110.655132,189.205922 112.123415,190.271871 114.125618,190.271871 C114.79302,190.138627 115.527161,190.005384 116.328043,189.87214 C116.995444,189.605653 117.796325,189.405787 118.730687,189.272544 C119.798529,189.805518 121.400292,190.738223 123.535976,192.070659 L128.941927,195.268506 L116.328043,195.468371 C110.588392,195.335128 106.583984,196.267833 104.31482,198.266487 C106.583984,205.994616 107.718566,209.392328 107.718566,208.459623 L107.718566,217.453567 C106.517244,215.7214 105.382662,214.855316 104.31482,214.855316 C102.312616,214.855316 100.777593,215.788022 99.7097508,217.653432 L102.913277,221.450875 C103.180237,221.051144 103.447198,220.784657 103.714158,220.651413 C105.849843,220.651413 107.184645,221.917227 107.718566,224.448856 L103.714158,225.648048 L108.119007,241.23755 L105.916583,248.23284 C104.31482,251.430686 102.846537,253.296097 101.511734,253.829071 C101.511734,255.294751 103.447198,257.026918 107.318125,259.025572 L101.912175,263.222746 C99.7764909,263.222746 98.6419087,262.489906 98.5084285,261.024226 C98.241468,256.493943 97.2403661,254.228802 95.5051227,254.228802 L91.7009355,256.827052 C88.8978501,256.560565 87.1626068,255.561238 86.4952055,253.829071 L86.0947647,248.432705 C85.4273635,248.299462 84.8267023,248.23284 84.2927813,248.23284 L82.2905775,248.432705 C81.0892552,248.96568 79.8879329,249.36541 78.6866106,249.631898 C77.2183277,249.631898 76.2172258,248.699192 75.6833048,246.833782 C75.0159035,244.568641 74.215022,242.70323 73.2806602,241.23755 C72.3462984,241.370794 71.5454169,241.637281 70.8780156,242.037012 C70.2106143,242.170256 69.4097328,242.303499 68.475371,242.436743 C67.1405685,241.504038 65.4053251,239.971736 63.2696411,237.839838 L57.4632499,232.443472 C59.9993748,231.377524 61.2674372,229.978466 61.2674372,228.246299 L59.2652334,225.648048 L54.0595034,224.448856 L59.6656742,221.450875 C59.1317531,219.718708 57.7969506,218.053163 55.6612665,216.45424 C55.7947468,215.521534 56.1284474,214.655451 56.6623684,213.855989 C57.0628092,213.056528 57.3297697,212.190444 57.4632499,211.257739 C57.4632499,206.993943 57.1962894,203.396366 56.6623684,200.465007 C55.5945264,194.069314 53.2586219,190.871467 49.654655,190.871467 L38.0418728,192.870121 L33.436804,191.670929 C34.6381263,190.60498 36.9072906,190.138627 40.244297,190.271871 L41.2453989,186.274563 C41.2453989,185.874832 41.1786588,185.608345 41.0451785,185.475101 L47.8526716,189.272544 L51.0561977,187.074024 C50.7892372,185.07537 50.6557569,182.743607 50.6557569,180.078735 L52.6579608,185.674966 C53.0584015,185.80821 53.5255824,185.941454 54.0595034,186.074697 C54.5934245,186.207941 55.1273455,186.274563 55.6612665,186.274563 L59.6656742,184.076043 L56.6623684,177.480485 C63.4698614,175.881561 66.9403481,174.016151 67.0738283,171.884253 L70.8780156,173.483176 C73.4141405,173.483176 74.6822029,172.283984 74.6822029,169.885599 L74.2817621,167.287349 C76.6844067,169.818977 78.5531303,171.084791 79.8879329,171.084791 L84.4930017,168.886272 C85.2938832,170.218708 86.228245,171.950875 87.296087,174.082773 C88.3639291,176.21467 89.5652514,177.280619 90.9000539,177.280619 C91.8344157,177.147376 92.5685571,177.080754 93.1024781,177.080754 C93.5029189,176.814266 94.1703202,176.614401 95.104682,176.481157 C96.3060043,176.481157 97.5073266,177.746972 98.7086489,180.2786 C99.9099712,182.676985 101.511734,183.876178 103.513938,183.876178 C104.31482,183.742934 105.048961,183.543069 105.716362,183.276581 C106.383764,183.010094 107.051165,182.810229 107.718566,182.676985 Z M45.0495862,195.868102 L45.0495862,199.065949 L43.4478231,199.065949 L43.4478231,195.868102 L45.0495862,195.868102 Z M116.728483,249.631898 C118.330246,251.097577 119.798529,252.230148 121.133332,253.02961 C124.203378,252.763122 125.738401,251.497308 125.738401,249.232167 L124.336858,245.234859 L142.957354,236.640646 C143.491275,236.77389 144.025196,237.040377 144.559117,237.440108 C145.093038,237.573351 145.693699,237.706595 146.3611,237.839838 C147.428942,237.839838 148.763745,236.307537 150.365508,233.242934 L155.971678,235.841184 L157.773662,231.24428 C157.773662,230.844549 157.706922,230.578062 157.573441,230.444818 L157.573441,226.847241 L167.584461,222.250336 C170.787987,220.651413 173.524332,219.385599 175.793496,218.452894 C178.463101,219.652086 181.866848,221.317631 186.004736,223.449529 L183.602091,222.849933 L180.398565,223.649394 L179.998124,226.047779 C179.998124,226.847241 180.331825,227.713324 180.999226,228.64603 L184.202752,228.64603 C185.404075,227.713324 186.004736,226.181023 186.004736,224.049125 L200.620824,246.234186 L196.816637,251.830417 L203.223689,253.02961 C207.094616,254.228802 209.03008,256.427322 209.03008,259.625168 C209.03008,261.224092 205.225893,263.955585 197.617518,267.81965 C197.217077,267.81965 196.749896,267.686406 196.215975,267.419919 C195.682054,267.153432 195.081393,267.020188 194.413992,267.020188 L191.010245,270.4179 C190.609805,270.284657 190.009144,270.01817 189.208262,269.618439 L186.004736,268.818977 C184.136012,268.818977 183.13491,270.884253 183.00143,275.014805 L177.995921,271.617093 C176.260677,271.617093 174.925875,272.61642 173.991513,274.615074 C175.726756,276.480485 176.594378,278.14603 176.594378,279.611709 C164.848115,284.674966 157.973882,287.206595 155.971678,287.206595 L143.958455,287.806191 L141.756031,281.010767 C140.154268,281.410498 138.218804,282.143338 135.94964,283.209287 L132.746114,279.211978 L131.945232,274.215343 L125.738401,274.215343 C124.270118,274.215343 122.000953,271.483849 118.930908,266.020861 C115.860862,260.824361 114.325839,257.293405 114.325839,255.427995 L116.728483,249.631898 Z M132.746114,267.020188 L135.74942,268.818977 C137.885104,267.753028 138.952946,266.420592 138.952946,264.821669 L136.950742,262.423284 L132.746114,263.222746 L132.746114,267.020188 Z M128.941927,270.4179 L130.143249,265.621131 L126.539282,264.222073 C124.537078,265.154778 123.535976,266.620458 123.535976,268.619112 L128.941927,270.4179 Z M141.756031,264.821669 C142.823873,264.954913 143.758235,265.154778 144.559117,265.421265 C145.226518,265.554509 146.09414,265.687752 147.161982,265.820996 C147.161982,263.555855 145.760439,261.823688 142.957354,260.624495 L141.756031,264.821669 Z M140.95515,272.816285 L136.550301,271.617093 L135.74942,275.814266 L139.954048,277.013459 L140.95515,272.816285 Z M156.77256,279.611709 L159.976086,281.610363 L160.977188,276.413863 L158.574543,275.014805 C158.040622,275.014805 157.573441,275.281292 157.173001,275.814266 L156.77256,279.611709 Z M152.567932,281.410498 C152.567932,280.611036 152.501192,279.878197 152.367712,279.211978 C152.100751,278.54576 151.900531,277.812921 151.76705,277.013459 C148.963965,278.479139 147.562422,280.277927 147.562422,282.409825 C147.962863,282.409825 148.563524,282.476447 149.364406,282.60969 L152.567932,281.410498 Z M150.165287,270.817631 L148.763745,268.818977 L144.559117,269.818304 L144.559117,273.216016 C146.027399,274.415209 147.562422,275.014805 149.164185,275.014805 L150.165287,270.817631 Z M158.374323,272.416555 L159.375425,267.81965 L153.969475,267.81965 C153.969475,270.884253 155.437757,272.416555 158.374323,272.416555 Z M166.983799,278.612382 L171.188428,278.612382 C170.654507,276.613728 170.254066,274.881561 169.987105,273.415882 L164.781375,275.414536 C165.448777,276.480485 166.182918,277.546433 166.983799,278.612382 Z M168.585563,269.618439 C168.452082,268.55249 168.251862,267.686406 167.984901,267.020188 C167.717941,266.087483 167.517721,265.154778 167.38424,264.222073 C165.248556,264.621803 163.580053,266.087483 162.378731,268.619112 L165.782477,269.818304 L168.585563,269.618439 Z M169.987105,240.438089 L168.185122,235.841184 C166.182918,236.640646 164.781375,238.439435 163.980494,241.23755 L169.987105,240.438089 Z M204.425011,260.224764 C204.425011,258.22611 203.89109,256.827052 202.823248,256.027591 L198.61862,256.027591 L199.819942,261.423957 L204.425011,260.224764 Z M188.807821,255.228129 L193.012449,255.228129 L193.012449,248.832436 C188.34064,250.298116 186.271696,251.630552 186.805617,252.829744 L188.807821,255.228129 Z M190.609805,257.82638 C190.609805,258.359354 190.609805,258.825707 190.609805,259.225437 C190.609805,260.824361 191.610907,262.489906 193.61311,264.222073 C194.947913,263.422611 195.481834,261.690444 195.214874,259.025572 L190.609805,257.82638 Z M185.604295,259.625168 L180.398565,263.02288 C182.534249,264.888291 184.269493,265.820996 185.604295,265.820996 L186.805617,261.823688 L185.604295,259.625168 Z M183.802312,252.629879 L179.597684,251.430686 L178.796802,256.827052 L183.00143,256.827052 L183.802312,252.629879 Z M173.991513,262.423284 C173.457592,262.423284 173.057151,262.623149 172.790191,263.02288 L171.989309,267.020188 C173.190631,267.81965 174.325214,268.419246 175.393056,268.818977 C176.861338,267.353297 177.59548,266.020861 177.59548,264.821669 L173.991513,262.423284 Z M169.386444,257.82638 L172.790191,259.025572 L175.793496,258.425976 C175.793496,256.294078 174.391954,254.495289 171.588868,253.02961 C169.720145,254.228802 168.785783,255.361373 168.785783,256.427322 C168.919263,256.960296 169.119484,257.426649 169.386444,257.82638 Z M167.784681,245.034993 L167.784681,250.631225 L173.190631,248.23284 C170.921467,246.100942 169.119484,245.034993 167.784681,245.034993 Z M181.199447,247.633244 L181.199447,243.43607 C180.398565,242.903096 179.664424,242.636608 178.997022,242.636608 L175.793496,243.43607 L175.793496,247.633244 L178.997022,248.432705 C179.664424,248.432705 180.398565,248.166218 181.199447,247.633244 Z M186.004736,240.438089 C185.070374,241.504038 184.336233,242.503365 183.802312,243.43607 C185.804516,245.434724 187.339538,246.434051 188.40738,246.434051 L189.408482,246.234186 L190.609805,241.637281 L186.004736,240.438089 Z M182.200549,234.442127 C182.73447,235.641319 183.401871,236.77389 184.202752,237.839838 C185.671035,237.839838 187.072578,237.040377 188.40738,235.441454 C188.40738,233.975774 187.139318,232.576716 184.603193,231.24428 C183.00143,231.24428 182.200549,232.310229 182.200549,234.442127 Z M175.393056,234.042396 L173.390852,238.439435 L178.997022,238.439435 C177.66222,235.508075 176.460898,234.042396 175.393056,234.042396 Z M174.391954,225.048452 L170.387546,226.047779 L170.387546,229.245626 C171.722349,230.578062 173.123891,231.24428 174.592174,231.24428 C175.926977,229.911844 176.594378,228.446164 176.594378,226.847241 L174.391954,225.048452 Z M161.377629,256.027591 L160.176306,260.224764 L165.382036,261.423957 C165.915957,259.158816 164.581155,257.360027 161.377629,256.027591 Z M152.968373,257.82638 L150.966169,263.02288 C151.50009,263.156124 152.034011,263.355989 152.567932,263.622476 C153.235333,263.888964 153.835994,264.088829 154.369915,264.222073 L156.77256,259.025572 L152.968373,257.82638 Z M153.769254,249.631898 C150.832689,249.631898 148.897225,250.031629 147.962863,250.83109 L149.364406,255.228129 C150.432248,255.094886 151.36661,254.961642 152.167491,254.828398 C152.968373,254.428668 153.835994,254.228802 154.770356,254.228802 L153.769254,249.631898 Z M151.76705,245.834455 L151.76705,241.637281 L147.962863,240.438089 L146.16088,243.43607 C146.16088,243.835801 146.3611,244.368775 146.761541,245.034993 L151.76705,245.834455 Z M159.976086,244.035666 L160.977188,239.638627 C160.042826,239.105653 159.041724,238.506057 157.973882,237.839838 C155.838198,238.506057 154.770356,239.638627 154.770356,241.23755 C154.770356,241.903769 154.903836,242.503365 155.170797,243.036339 L155.571238,244.035666 L159.976086,244.035666 Z M162.378731,246.833782 C159.175205,247.633244 157.573441,248.765814 157.573441,250.231494 C157.573441,251.56393 159.709126,252.230148 163.980494,252.230148 C163.446573,250.09825 162.912652,248.299462 162.378731,246.833782 Z M145.560219,253.429341 C144.091936,252.096904 142.623653,251.430686 141.15537,251.430686 C139.954048,252.763122 139.353387,254.16218 139.353387,255.62786 C140.287748,255.761104 141.08863,256.027591 141.756031,256.427322 C142.423433,256.560565 143.224314,256.693809 144.158676,256.827052 L145.560219,253.429341 Z M130.143249,257.82638 L135.348979,259.625168 L136.350081,255.427995 L131.945232,254.228802 L130.143249,257.82638 Z M129.542588,245.034993 L128.141045,247.633244 C128.141045,248.96568 129.542588,250.231494 132.345673,251.430686 L134.748318,249.232167 C133.813956,247.366756 132.078713,245.967699 129.542588,245.034993 Z M138.352285,242.436743 L136.350081,245.034993 L138.552505,248.432705 L142.556913,248.432705 L142.556913,242.436743 L138.352285,242.436743 Z M162.17851,227.446837 L161.377629,231.843876 L166.182918,233.242934 L167.38424,229.645357 L162.17851,227.446837 Z M122.735095,256.027591 L121.934213,260.224764 L127.139943,261.423957 L127.139943,257.226783 L122.735095,256.027591 Z M82.4907978,210.258412 C80.488594,211.324361 79.4874921,212.723419 79.4874921,214.455585 L85.8945443,216.45424 L85.8945443,211.457604 L82.4907978,210.258412 Z M90.6998335,245.834455 L89.898952,249.232167 C91.1002743,250.697847 92.4350769,251.430686 93.9033597,251.430686 C95.2381622,249.965007 95.9055635,248.432705 95.9055635,246.833782 L90.6998335,245.834455 Z M98.9088692,244.235532 C99.0423495,245.834455 99.3760501,247.233513 99.9099712,248.432705 C100.844333,248.299462 101.778695,248.166218 102.713057,248.032974 C103.380458,247.899731 104.181339,247.766487 105.115701,247.633244 L104.31482,244.235532 L98.9088692,244.235532 Z M102.713057,236.240915 C101.511734,235.574697 100.377152,234.841857 99.30931,234.042396 C97.0401457,235.241588 95.9055635,236.707268 95.9055635,238.439435 L101.311514,240.438089 L102.713057,236.240915 Z M98.5084285,231.24428 L99.7097508,226.847241 L94.3038004,226.047779 L94.3038004,231.24428 L98.5084285,231.24428 Z M93.3026985,237.839838 L89.0980705,236.640646 L87.4963074,240.83782 L92.1013762,242.436743 L93.3026985,237.839838 Z M90.4996132,232.843203 C89.5652514,229.245626 88.0969686,227.446837 86.0947647,227.446837 L85.2938832,230.244953 L87.4963074,234.042396 L90.4996132,232.843203 Z M92.7020374,216.85397 C91.3672348,218.186406 90.6998335,219.585464 90.6998335,221.051144 L94.7042412,224.049125 C96.8399253,221.783984 97.9077673,220.051817 97.9077673,218.852624 L92.7020374,216.85397 Z M78.2861698,240.83782 C78.9535711,243.635935 80.1548934,245.034993 81.8901367,245.034993 C83.3584195,243.702557 84.0925609,242.303499 84.0925609,240.83782 L78.2861698,240.83782 Z M76.0837456,231.644011 L76.8846271,235.841184 L82.2905775,234.841857 C82.2905775,232.843203 81.4896959,231.111036 79.8879329,229.645357 C79.4874921,230.045087 78.8868309,230.378197 78.0859494,230.644684 C77.2850679,231.044415 76.6176666,231.377524 76.0837456,231.644011 Z M71.6788971,236.640646 L73.0804398,235.441454 L67.8747099,232.843203 C67.8747099,235.241588 68.6088513,237.240242 70.0771341,238.839166 C70.6110551,238.039704 71.1449761,237.306864 71.6788971,236.640646 Z M65.4720653,221.051144 C67.4742691,219.05249 68.475371,217.320323 68.475371,215.854643 L63.4698614,214.855316 C62.2685391,216.187752 61.667878,217.720054 61.667878,219.452221 L65.4720653,221.051144 Z M70.2773545,224.448856 C69.6099532,224.315612 69.0760322,224.049125 68.6755914,223.649394 C68.1416704,223.382907 67.6077494,223.11642 67.0738283,222.849933 L65.6722857,227.246972 L66.2729468,229.645357 L70.2773545,224.448856 Z M75.6833048,218.452894 C76.2172258,217.520188 76.8846271,216.520861 77.6855086,215.454913 C76.6176666,213.323015 75.1493838,212.257066 73.2806602,212.257066 L71.4786768,217.453567 C72.146078,217.58681 72.8134793,217.786676 73.4808806,218.053163 C74.1482819,218.186406 74.8824233,218.31965 75.6833048,218.452894 Z M79.4874921,223.449529 L76.283966,221.450875 C75.7500449,221.584118 75.4163443,221.717362 75.282864,221.850606 C73.9480615,222.117093 73.2806602,222.983176 73.2806602,224.448856 L78.2861698,226.647376 L79.4874921,223.449529 Z M82.2905775,222.650067 L84.4930017,225.048452 L88.6976297,223.649394 L87.6965278,219.452221 C85.5608437,219.185734 83.7588603,220.251682 82.2905775,222.650067 Z M64.0705226,191.870794 L70.2773545,192.870121 L70.2773545,188.473082 L65.0716245,187.27389 L64.0705226,191.870794 Z M78.8868309,202.06393 C78.8868309,202.730148 78.7533507,203.462988 78.4863902,204.26245 C78.2194297,204.928668 78.0192093,205.594886 77.885729,206.261104 L80.8890348,207.460296 L84.0925609,206.261104 C83.2916794,204.528937 81.556436,203.129879 78.8868309,202.06393 Z M70.8780156,203.063257 C69.6766933,204.129206 68.6755914,205.195155 67.8747099,206.261104 L71.6788971,210.258412 L74.8824233,209.259085 C74.3485023,205.128533 73.0136997,203.063257 70.8780156,203.063257 Z M67.4742691,199.86541 L71.8791175,201.064603 L71.8791175,196.867429 L68.6755914,195.868102 C68.6755914,196.401077 68.475371,196.934051 68.0749303,197.467026 C67.8079697,198 67.5410092,198.599596 67.2740487,199.265814 C67.2740487,199.532301 67.3407888,199.732167 67.4742691,199.86541 Z M80.8890348,196.467699 L80.2883736,193.869448 C79.3540118,194.002692 78.4863902,194.202557 77.6855086,194.469044 C76.7511469,194.602288 75.8167851,194.735532 74.8824233,194.868775 L76.0837456,199.065949 C79.1537914,198.532974 80.7555545,197.666891 80.8890348,196.467699 Z M60.2663353,210.858008 L63.8703022,211.857335 L65.6722857,208.459623 C64.4709634,207.260431 63.1361608,206.660834 61.667878,206.660834 L60.2663353,210.858008 Z M59.8658945,194.469044 L61.2674372,190.271871 L57.0628092,189.272544 L55.0606054,192.47039 L59.8658945,194.469044 Z M78.6866106,184.675639 C74.9491634,184.675639 73.0804398,185.741588 73.0804398,187.873486 L75.282864,190.871467 C75.9502653,190.871467 76.4841863,190.738223 76.8846271,190.471736 C77.4185481,190.205249 78.0192093,190.072005 78.6866106,190.072005 L78.6866106,184.675639 Z M70.8780156,180.478466 L71.6788971,182.676985 C74.8824233,182.676985 76.4841863,180.944818 76.4841863,177.480485 C75.282864,176.281292 73.9480615,175.681696 72.4797787,175.681696 L70.8780156,180.478466 Z M67.4742691,184.675639 L67.4742691,179.479139 L62.2685391,178.479812 L61.8680984,179.279273 C61.4676576,180.078735 61.2674372,180.811575 61.2674372,181.477793 C61.2674372,182.144011 63.3363812,183.20996 67.4742691,184.675639 Z M84.693222,174.682369 L80.6888144,174.682369 L79.4874921,177.880215 L84.693222,179.279273 L84.693222,174.682369 Z M105.916583,192.870121 C106.450504,192.603634 107.051165,192.203903 107.718566,191.670929 L106.717464,186.674293 C104.71526,187.606999 102.980017,188.539704 101.511734,189.472409 C102.579576,191.73755 104.047859,192.870121 105.916583,192.870121 Z M99.9099712,211.857335 L104.31482,210.858008 C104.181339,210.325034 103.981119,209.658816 103.714158,208.859354 C103.447198,208.193136 103.246978,207.460296 103.113497,206.660834 L98.9088692,206.660834 C98.6419087,209.325707 98.9756094,211.057873 99.9099712,211.857335 Z M89.898952,208.459623 L88.6976297,211.857335 L89.898952,213.855989 L93.9033597,213.855989 L95.104682,209.658816 L89.898952,208.459623 Z M92.3015966,200.465007 L89.0980705,199.46568 L86.0947647,202.263795 L89.0980705,205.461642 L92.3015966,204.462315 L92.3015966,200.465007 Z M89.2982909,196.467699 L89.2982909,191.271198 L85.2938832,191.271198 C85.1604029,191.937416 84.9601826,192.603634 84.693222,193.269852 C84.4262615,193.93607 84.2260412,194.66891 84.0925609,195.468371 C85.0269227,195.601615 85.8945443,195.80148 86.6954259,196.067968 C87.4963074,196.201211 88.3639291,196.334455 89.2982909,196.467699 Z M97.7075469,194.469044 L98.5084285,190.271871 L93.3026985,190.271871 C93.3026985,193.069987 94.7709813,194.469044 97.7075469,194.469044 Z M96.3060043,197.467026 C96.172524,198.133244 96.0390438,198.73284 95.9055635,199.265814 C95.638603,199.798789 95.4383826,200.331763 95.3049024,200.864738 L99.30931,203.263122 C99.843231,203.129879 100.243672,202.996635 100.510632,202.863392 L100.510632,197.467026 L96.3060043,197.467026 Z M90.6998335,181.078062 L91.7009355,185.475101 L96.9066654,185.475101 C96.9066654,184.542396 96.7731852,183.60969 96.5062247,182.676985 C96.2392641,181.877524 96.0390438,181.01144 95.9055635,180.078735 C94.9712017,180.211978 94.0368399,180.411844 93.1024781,180.678331 C92.4350769,180.944818 91.6341953,181.078062 90.6998335,181.078062 Z M86.4952055,188.473082 L87.6965278,184.076043 L83.6921201,182.676985 L81.4896959,186.274563 L86.4952055,188.473082 Z M186.004736,32.7779273 L166.983799,23.9838493 C159.909346,21.4522207 152.834892,20.1864065 145.760439,20.1864065 C142.423433,20.1864065 135.482459,22.7846568 124.937519,27.9811575 L57.4632499,64.5565276 C46.9183098,72.6843876 41.7125798,81.5450875 41.8460601,91.1386272 L42.2465008,149.099596 C73.8813214,149.099596 97.8410272,149.166218 114.125618,149.299462 C112.790816,145.302153 111.255793,139.439435 109.52055,131.711306 C108.185747,125.98183 107.117905,120.718708 106.317023,115.921938 L106.717464,115.921938 L106.717464,103.330417 C105.516142,102.264468 104.915481,100.932032 104.915481,99.333109 L104.915481,99.1332436 L106.116803,94.1366083 C105.716362,93.8701211 105.382662,93.6036339 105.115701,93.3371467 C105.249181,91.0720054 105.516142,89.0733513 105.916583,87.3411844 L106.116803,87.3411844 L106.116803,86.7415882 C107.718566,80.8788694 110.922092,77.5477793 115.727381,76.7483176 C134.948538,86.8748318 145.693699,93.2039031 147.962863,95.7355316 C139.553607,108.127187 132.679374,119.452894 127.340164,129.712651 L207.828758,91.538358 L207.428317,0 L186.004736,32.7779273 Z M162.979392,39.5733513 C163.780273,39.8398385 164.514415,39.9730821 165.181816,39.9730821 L167.784681,38.7738896 C168.318602,38.1076716 168.986003,37.641319 169.786885,37.3748318 C171.789089,37.3748318 173.791293,38.307537 175.793496,40.1729475 C175.526536,40.9724092 175.259575,41.705249 174.992615,42.371467 C174.592174,43.0376851 174.258473,43.8371467 173.991513,44.769852 L176.394158,47.5679677 L182.200549,44.5699865 C183.13491,44.7032301 183.935792,44.9030956 184.603193,45.1695828 C185.404075,45.43607 186.138216,45.5693136 186.805617,45.5693136 C187.739979,45.1695828 188.607601,44.6366083 189.408482,43.9703903 C190.209364,42.9044415 191.143726,42.1716016 192.211568,41.7718708 L198.61862,44.1702557 L195.214874,48.1675639 C195.214874,49.5 196.883377,51.1655451 200.220383,53.1641992 L199.419502,75.7489906 L197.417298,75.1493943 L193.012449,76.3485868 C195.949015,79.1467026 198.218179,80.679004 199.819942,80.9454913 L194.013551,87.7409152 L189.208262,85.7422611 L187.206058,91.1386272 C187.206058,91.6716016 187.339538,92.3378197 187.606499,93.1372813 L183.602091,89.1399731 C182.133808,87.6742934 180.665526,87.0746972 179.197243,87.3411844 C178.129401,87.6076716 177.59548,88.5403769 177.59548,90.1393001 C178.529842,91.3384926 179.731164,92.8707941 181.199447,94.7362046 L168.585563,101.531629 C167.784681,101.398385 167.25076,101.265141 166.983799,101.131898 C166.316398,100.732167 165.782477,100.532301 165.382036,100.532301 C163.379833,100.532301 162.24525,101.997981 161.97829,104.929341 L154.770356,102.131225 L157.573441,94.93607 C159.842606,96.0020188 161.711329,96.8681023 163.179612,97.5343203 L164.781375,94.7362046 C163.446573,93.4037685 161.644589,91.871467 159.375425,90.1393001 C160.309787,89.6063257 161.511109,88.6069987 162.979392,87.141319 C163.112872,86.2086137 162.311991,84.8761777 160.576747,83.1440108 C158.441063,83.6769852 157.373221,85.4757739 157.373221,88.5403769 L148.563524,83.9434724 L150.966169,78.1473755 L147.962863,76.7483176 C146.09414,78.4804845 145.159778,80.2792732 145.159778,82.1446837 L137.351183,78.1473755 L140.354489,71.1520861 C139.820568,71.0188425 139.353387,70.8855989 138.952946,70.7523553 C138.552505,70.6191117 138.018584,70.4858681 137.351183,70.3526245 C134.815058,70.3526245 133.813956,71.8183042 134.347877,74.7496635 L127.139943,71.7516824 L128.941927,66.1554509 L125.738401,63.7570659 C124.270118,63.7570659 123.202276,64.6897712 122.534874,66.5551817 L118.330246,66.5551817 L117.329144,58.9602961 L114.526059,57.5612382 C113.858658,58.0942127 113.057776,58.7604307 112.123415,59.5598923 C111.189053,60.359354 110.321431,60.9589502 109.52055,61.358681 C107.518346,61.358681 105.783102,59.8930013 104.31482,56.961642 L105.115701,55.7624495 L105.916583,53.56393 C105.916583,52.0982503 105.115701,50.8324361 103.513938,49.7664872 C108.586188,44.4367429 112.190155,41.7718708 114.325839,41.7718708 C115.12672,42.038358 115.927602,42.4380888 116.728483,42.9710633 C117.128924,43.5040377 117.796325,43.8371467 118.730687,43.9703903 C120.866371,43.9703903 121.934213,42.4380888 121.934213,39.3734859 C124.069897,39.7732167 126.606022,40.3061911 129.542588,40.9724092 L131.344571,33.7772544 L134.948538,39.3734859 L138.352285,39.3734859 L138.952946,36.7752355 C138.952946,34.909825 138.085324,33.4441454 136.350081,32.3781965 C139.286647,29.5800808 141.555811,28.1810229 143.157574,28.1810229 L149.764847,28.1810229 C151.63357,32.4448183 153.168593,34.6433378 154.369915,34.7765814 C155.437757,34.7765814 156.505599,33.577389 157.573441,31.179004 C160.776968,31.179004 162.645691,32.3781965 163.179612,34.7765814 L162.979392,39.5733513 Z M195.615314,33.3775236 L197.016857,32.7779273 L199.419502,36.9751009 L198.017959,37.3748318 L195.615314,33.3775236 Z M147.962863,110.925303 L147.161982,109.72611 L152.167491,105.129206 L152.968373,106.328398 L147.962863,110.925303 Z M102.112395,71.3519515 C102.112395,72.8176312 101.511734,74.2833109 100.310412,75.7489906 C98.9756094,74.8162853 97.7742871,73.3506057 96.706445,71.3519515 L102.112395,71.3519515 Z M92.7020374,73.3506057 L90.0991724,77.5477793 C89.1648106,77.0148048 88.6976297,75.3492598 88.6976297,72.551144 L92.7020374,73.3506057 Z M92.3015966,89.7395693 C93.6363992,89.7395693 94.6375011,89.4730821 95.3049024,88.9401077 L98.3082081,93.9367429 L93.3026985,94.1366083 L92.3015966,89.7395693 Z M89.898952,85.5423957 L95.104682,81.3452221 L95.9055635,85.5423957 L89.898952,85.5423957 Z M85.8945443,83.1440108 L86.8956463,87.3411844 L82.4907978,88.5403769 L80.6888144,86.5417227 C81.2227354,85.3425303 82.9579787,84.2099596 85.8945443,83.1440108 Z M89.2982909,93.5370121 L88.4974093,96.5349933 L84.0925609,96.5349933 C84.0925609,94.5363392 84.2260412,92.8707941 84.4930017,91.538358 L89.2982909,93.5370121 Z M87.0958666,99.5329744 L92.3015966,101.531629 C92.3015966,102.997308 91.7009355,104.396366 90.4996132,105.728802 C88.0969686,105.728802 86.3617252,104.796097 85.2938832,102.930686 C85.8278042,101.731494 86.4284654,100.598923 87.0958666,99.5329744 Z M90.9000539,107.927322 L95.104682,110.725437 C94.9712017,111.391655 94.7709813,111.991252 94.5040208,112.524226 C94.2370603,113.057201 94.0368399,113.523553 93.9033597,113.923284 C91.2337546,113.923284 89.1648106,113.323688 87.6965278,112.124495 C87.6965278,110.392328 88.7643698,108.993271 90.9000539,107.927322 Z M97.7075469,108.127187 L102.112395,107.12786 L100.911073,112.524226 L97.7075469,108.127187 Z M100.510632,103.330417 L96.3060043,103.330417 L95.3049024,97.9340511 L100.510632,98.7335128 L100.510632,103.330417 Z M78.6866106,76.948183 L79.8879329,74.1500673 L84.0925609,74.9495289 C83.2916794,78.1473755 81.556436,79.6130552 78.8868309,79.346568 L78.6866106,76.948183 Z M81.2894755,65.7557201 L79.2872717,71.1520861 C76.8846271,70.4858681 75.6833048,68.6870794 75.6833048,65.7557201 L81.2894755,65.7557201 Z M69.6766933,81.3452221 C69.4097328,80.2792732 69.009292,79.4798116 68.475371,78.9468371 C70.7445354,76.4152086 72.6132589,75.4158816 74.0815417,75.948856 L74.8824233,80.9454913 L69.6766933,81.3452221 Z M66.2729468,81.9448183 C66.0059863,82.4777927 65.8057659,83.1440108 65.6722857,83.9434724 L60.4665557,82.7442799 C60.4665557,79.679677 61.4676576,77.9475101 63.4698614,77.5477793 L66.873608,79.7462988 C66.7401277,80.4125168 66.5399073,81.1453567 66.2729468,81.9448183 Z M72.4797787,89.3398385 L72.4797787,85.1426649 L76.4841863,85.1426649 L77.2850679,86.7415882 L77.6855086,90.3391655 L72.4797787,89.3398385 Z M60.2663353,90.7388964 L57.0628092,94.93607 L52.8581811,90.7388964 L55.2608257,88.9401077 L60.2663353,90.7388964 Z M58.8647926,96.9347241 C60.1995952,96.9347241 61.667878,98.333782 63.2696411,101.131898 L59.8658945,103.330417 L55.6612665,100.332436 C56.5956283,99.2664872 57.6634703,98.1339166 58.8647926,96.9347241 Z M59.6656742,110.325707 L59.6656742,107.12786 L63.8703022,106.128533 C64.4042232,107.327725 65.0048844,108.327052 65.6722857,109.126514 L62.4687595,112.524226 L59.6656742,110.325707 Z M80.2883736,93.9367429 C80.4218539,94.0699865 80.5553341,94.4697174 80.6888144,95.1359354 L79.2872717,99.5329744 C76.2172258,98.4670256 74.6822029,96.6016151 74.6822029,93.9367429 L80.2883736,93.9367429 Z M68.6755914,90.1393001 C68.6755914,90.9387618 68.6088513,91.538358 68.475371,91.9380888 C65.5388054,91.9380888 63.4698614,91.3384926 62.2685391,90.1393001 C62.2685391,88.8068641 64.0037825,87.6742934 67.4742691,86.7415882 L68.6755914,90.1393001 Z M67.0738283,94.93607 L71.4786768,95.935397 C71.4786768,97.5343203 70.3440946,99.3997308 68.0749303,101.531629 L64.8714041,99.1332436 C64.8714041,97.9340511 65.6055455,96.5349933 67.0738283,94.93607 Z M70.8780156,109.526245 C69.009292,108.59354 68.0749303,107.460969 68.0749303,106.128533 C68.0749303,105.728802 68.2751506,105.062584 68.6755914,104.129879 L73.0804398,104.129879 C73.0804398,105.062584 73.2806602,105.795424 73.681101,106.328398 C73.8145812,107.12786 73.9480615,107.927322 74.0815417,108.726783 C73.4141405,108.726783 72.8802194,108.860027 72.4797787,109.126514 C71.9458577,109.259758 71.4119366,109.393001 70.8780156,109.526245 Z M70.2773545,114.722746 C70.2773545,113.79004 70.8112755,113.190444 71.8791175,112.923957 L75.6833048,112.524226 C75.9502653,113.989906 76.2172258,115.722073 76.4841863,117.720727 L71.4786768,117.720727 L71.078236,116.521534 C70.544315,115.855316 70.2773545,115.25572 70.2773545,114.722746 Z M82.2905775,102.530956 L82.2905775,106.728129 L76.8846271,105.728802 L77.885729,102.530956 L82.2905775,102.530956 Z M81.2894755,115.522207 C80.6220743,115.25572 80.0214131,115.055855 79.4874921,114.922611 L80.8890348,110.725437 L85.8945443,112.724092 C85.8945443,114.855989 84.9601826,115.921938 83.091459,115.921938 C82.2905775,115.788694 81.6899163,115.655451 81.2894755,115.522207 Z M85.4941036,125.115747 L82.2905775,120.119112 L88.4974093,119.919246 C88.4974093,121.51817 87.4963074,123.250336 85.4941036,125.115747 Z M73.0804398,123.516824 L74.8824233,120.918573 C76.8846271,120.918573 78.41965,121.9179 79.4874921,123.916555 L74.2817621,127.114401 C74.1482819,126.581427 74.0148016,126.048452 73.8813214,125.515478 C73.4808806,124.982503 73.2139201,124.316285 73.0804398,123.516824 Z M72.4797787,134.309556 C72.7467392,134.975774 72.9469596,135.841857 73.0804398,136.907806 C72.2795583,136.907806 71.5454169,137.107672 70.8780156,137.507402 C70.2106143,137.640646 69.4764729,137.77389 68.6755914,137.907133 L66.873608,134.909152 C66.873608,133.843203 68.5421111,132.777254 71.8791175,131.711306 C72.0125978,132.644011 72.2128182,133.510094 72.4797787,134.309556 Z M69.2762525,127.713997 C69.009292,127.713997 68.5421111,127.780619 67.8747099,127.913863 L64.0705226,126.914536 L65.0716245,123.516824 L69.2762525,123.516824 L69.2762525,127.713997 Z M82.2905775,131.711306 C82.2905775,133.176985 81.4896959,134.709287 79.8879329,136.30821 L76.0837456,133.909825 L76.8846271,129.712651 L82.2905775,131.711306 Z M61.2674372,126.514805 C61.0004767,129.312921 60.1995952,130.711978 58.8647926,130.711978 C58.0639111,130.578735 57.4632499,130.378869 57.0628092,130.112382 C56.3954079,129.979139 55.7280066,129.845895 55.0606054,129.712651 C55.0606054,128.91319 55.1940856,128.18035 55.4610461,127.514132 C55.5945264,126.847914 55.7280066,126.181696 55.8614869,125.515478 L61.2674372,126.514805 Z M63.2696411,119.519515 C62.6022398,118.320323 61.9348385,117.254374 61.2674372,116.321669 L66.4731672,114.323015 L67.4742691,119.519515 L63.2696411,119.519515 Z M91.7009355,121.51817 C91.1670144,120.851952 90.9000539,120.318977 90.9000539,119.919246 L92.7020374,117.121131 C93.3694386,117.121131 94.1035801,117.320996 94.9044616,117.720727 C95.5718629,117.85397 96.2392641,117.987214 96.9066654,118.120458 C95.8388234,120.385599 94.1035801,121.51817 91.7009355,121.51817 Z M90.4996132,128.113728 C90.3661329,129.046433 90.1659125,129.912517 89.898952,130.711978 C89.6319915,131.51144 89.4317711,132.377524 89.2982909,133.310229 L85.2938832,132.310902 L86.0947647,128.113728 L90.4996132,128.113728 Z M99.7097508,127.114401 L98.5084285,130.711978 L93.3026985,129.712651 L94.3038004,126.115074 L99.7097508,127.114401 Z M120.933111,60.359354 L125.137739,60.359354 L126.138841,55.9623149 L119.932009,55.9623149 L120.933111,60.359354 Z M109.120109,48.5672948 C108.986629,49.3667564 108.919888,50.0329744 108.919888,50.5659489 L109.92099,53.7637954 L114.125618,53.7637954 L114.9265,51.3654105 C114.659539,50.5659489 114.392579,49.8997308 114.125618,49.3667564 L109.120109,48.5672948 Z M123.535976,46.7685061 L118.330246,46.7685061 C118.730687,49.4333782 119.99875,51.2321669 122.134434,52.1648721 L123.535976,46.7685061 Z M157.973882,80.345895 C159.308685,80.345895 159.976086,78.8802153 159.976086,75.948856 L153.769254,75.948856 C155.237537,78.8802153 156.63908,80.345895 157.973882,80.345895 Z M148.763745,69.5531629 L147.962863,67.7543742 L143.157574,68.7537012 C142.757133,70.7523553 143.357794,72.551144 144.959557,74.1500673 C145.626959,74.0168237 146.3611,73.8169583 147.161982,73.5504711 C147.695903,73.2839838 148.363304,73.0841184 149.164185,72.9508748 L148.763745,69.5531629 Z M152.167491,65.7557201 L152.968373,71.1520861 C154.036215,71.0188425 154.970577,70.8189771 155.771458,70.5524899 C156.70582,70.2860027 157.573441,70.1527591 158.374323,70.1527591 C158.374323,68.5538358 157.706922,67.0881561 156.372119,65.7557201 L152.167491,65.7557201 Z M173.190631,93.7368775 L169.386444,90.1393001 L168.185122,91.538358 L172.38975,94.93607 L173.190631,93.7368775 Z M179.597684,84.3432032 C180.131605,84.3432032 180.665526,84.2099596 181.199447,83.9434724 C181.199447,81.5450875 180.131605,79.7462988 177.995921,78.5471063 C176.260677,79.346568 175.259575,80.7456258 174.992615,82.7442799 L179.597684,84.3432032 Z M170.787987,85.7422611 C171.054947,85.3425303 171.188428,85.0094213 171.188428,84.7429341 C171.188428,82.4777927 169.786885,81.3452221 166.983799,81.3452221 L165.782477,84.7429341 L170.787987,85.7422611 Z M168.185122,77.5477793 L169.386444,73.3506057 L164.781375,72.1514132 L163.980494,77.5477793 L168.185122,77.5477793 Z M178.396361,75.1493943 L178.396361,73.5504711 L172.38975,72.7510094 L172.38975,74.3499327 L178.396361,75.1493943 Z M188.40738,83.1440108 C189.875663,81.6783311 190.609805,80.2792732 190.609805,78.9468371 C189.141522,77.4811575 187.606499,76.7483176 186.004736,76.7483176 L183.802312,80.345895 L188.40738,83.1440108 Z M187.606499,72.9508748 L187.206058,69.5531629 L186.405177,67.7543742 C183.602091,69.0868102 181.866848,70.4192463 181.199447,71.7516824 L187.606499,72.9508748 Z M195.615314,66.7550471 L192.812229,65.7557201 C191.877867,66.2886945 191.410686,67.4212651 191.410686,69.153432 C191.410686,69.9528937 191.410686,70.6191117 191.410686,71.1520861 L195.615314,71.1520861 L195.615314,66.7550471 Z M192.211568,62.9576043 C193.41289,61.4919246 194.013551,60.026245 194.013551,58.5605653 L189.808923,57.5612382 L187.806719,60.7590848 C189.141522,62.2247645 190.609805,62.9576043 192.211568,62.9576043 Z M191.410686,49.3667564 C190.876765,48.833782 190.476324,48.2341857 190.209364,47.5679677 C186.605397,47.5679677 184.803414,48.6339166 184.803414,50.7658143 C184.803414,52.7644684 186.605397,53.7637954 190.209364,53.7637954 L191.410686,49.3667564 Z M184.803414,60.7590848 L179.597684,59.1601615 C179.197243,62.2247645 180.598786,64.1567968 183.802312,64.9562584 L184.803414,60.7590848 Z M175.793496,62.5578735 C174.058253,62.2913863 171.922569,62.1581427 169.386444,62.1581427 C169.519924,63.2240915 169.720145,64.1567968 169.987105,64.9562584 C170.120586,65.6224764 170.254066,66.4885599 170.387546,67.5545087 L175.793496,62.5578735 Z M171.588868,58.3606999 L173.190631,53.1641992 L169.786885,52.1648721 L166.983799,56.1621803 L171.588868,58.3606999 Z M171.188428,45.9690444 L166.983799,43.9703903 C165.515517,43.9703903 164.781375,44.9030956 164.781375,46.7685061 L166.983799,50.166218 C168.852523,49.2335128 170.254066,47.8344549 171.188428,45.9690444 Z M180.598786,50.7658143 C180.064865,50.4993271 179.464203,50.2994616 178.796802,50.166218 L175.793496,53.7637954 L180.398565,56.7617766 L182.200549,51.3654105 C181.533147,51.2321669 180.999226,51.0323015 180.598786,50.7658143 Z M164.180714,63.1574697 L161.377629,64.1567968 L161.377629,68.3539704 C161.91155,68.487214 162.445471,68.7537012 162.979392,69.153432 C163.513313,69.2866756 164.047234,69.4199192 164.581155,69.5531629 L166.583359,64.1567968 L164.180714,63.1574697 Z M162.378731,54.5632571 C159.709126,56.0289367 158.374323,57.4946164 158.374323,58.9602961 L162.378731,60.359354 C163.580053,60.359354 164.180714,59.6931359 164.180714,58.3606999 L162.378731,54.5632571 Z M156.372119,61.9582773 C154.636876,58.4939435 152.968373,56.7617766 151.36661,56.7617766 C149.898327,56.7617766 149.164185,57.8277254 149.164185,59.9596231 C149.698106,61.025572 150.432248,62.0248991 151.36661,62.9576043 L156.372119,61.9582773 Z M146.761541,51.3654105 C147.028501,52.0316285 147.295462,52.4979812 147.562422,52.7644684 L152.567932,53.7637954 L152.567932,49.3667564 L149.364406,47.5679677 L146.761541,51.3654105 Z M160.977188,52.1648721 L161.97829,47.7678331 L156.372119,47.7678331 C155.704718,50.6991925 157.239741,52.1648721 160.977188,52.1648721 Z M137.351183,62.1581427 L131.945232,62.1581427 L131.945232,66.5551817 L137.351183,66.5551817 L137.351183,62.1581427 Z M146.3611,60.359354 L140.354489,60.359354 C140.354489,62.2247645 141.956252,64.0235532 145.159778,65.7557201 L146.3611,60.359354 Z M138.352285,53.56393 C138.352285,54.7631225 140.020788,55.4959623 143.357794,55.7624495 C143.891715,53.7637954 143.024094,51.8983849 140.754929,50.166218 L138.352285,53.56393 Z M128.941927,53.9636608 C129.075407,54.7631225 129.275627,55.4959623 129.542588,56.1621803 C129.809548,56.8283984 130.009769,57.5612382 130.143249,58.3606999 L134.347877,58.3606999 L134.347877,53.1641992 C133.413515,53.1641992 132.545894,53.2974428 131.745012,53.56393 C130.81065,53.6971736 129.876288,53.8304172 128.941927,53.9636608 Z M132.746114,49.166891 L132.746114,44.769852 L129.542588,42.9710633 L126.539282,47.5679677 C126.539282,48.6339166 128.608226,49.166891 132.746114,49.166891 Z M137.751624,41.7718708 C137.484663,42.3048452 137.084222,43.0376851 136.550301,43.9703903 C136.149861,44.6366083 135.94964,45.3694482 135.94964,46.1689098 L141.555811,46.1689098 C141.555811,44.8364738 140.287748,43.3707941 137.751624,41.7718708 Z M145.159778,42.5713324 L145.760439,45.5693136 L150.165287,44.769852 C150.165287,41.1722746 149.030705,39.3734859 146.761541,39.3734859 L145.159778,42.5713324 Z M159.375425,38.5740242 L152.968373,38.5740242 C154.169695,41.1056528 155.838198,42.6379542 157.973882,43.1709287 L159.375425,38.5740242 Z M147.161982,37.3748318 C147.695903,36.4421265 148.363304,35.5094213 149.164185,34.576716 C148.363304,32.9777927 146.628061,31.5121131 143.958455,30.179677 L141.756031,35.3761777 L147.161982,37.3748318 Z M303.534101,124.716016 C303.00018,115.122476 299.329473,106.994616 292.52198,100.332436 C287.716691,95.6689098 278.306332,89.5397039 264.290906,81.9448183 C250.67592,74.4831763 240.19772,68.820323 232.856306,64.9562584 C215.503872,94.1366083 203.490649,113.523553 196.816637,123.117093 L265.492228,164.089502 L233.256746,180.078735 L208.229198,144.502692 L209.630741,232.443472 C238.595957,249.898385 265.225267,265.288022 289.518674,278.612382 C281.910299,261.823688 275.436507,248.96568 270.097297,240.038358 C285.847967,233.909152 295.992466,226.314266 300.530795,217.253701 C303.867801,210.591521 305.336084,200.531629 304.935643,187.074024 L304.735423,177.880215 C304.468463,167.753701 304.201502,159.759085 303.934542,153.896366 L303.534101,124.716016 Z M290.519776,112.923957 C293.456341,117.720727 294.924624,122.517497 294.924624,127.314266 L294.924624,134.309556 L287.51647,136.707941 L293.122641,141.304845 C292.054799,145.16891 290.319555,147.100942 287.916911,147.100942 C286.582108,146.701211 285.180566,146.168237 283.712283,145.502019 L281.509859,148.300135 C282.04378,148.966353 282.844661,150.631898 283.912503,153.29677 L274.502145,157.294078 C266.49333,152.230821 261.42108,149.699192 259.285396,149.699192 C258.617995,145.16891 256.749271,142.903769 253.679225,142.903769 L251.476801,143.103634 L209.03008,118.919919 C209.03008,115.855316 210.765323,113.856662 214.23581,112.923957 C222.244625,100.798789 227.583835,90.3391655 230.253441,81.5450875 L238.662697,77.5477793 L244.268867,79.7462988 C244.135387,80.2792732 243.868427,81.0121131 243.467986,81.9448183 L242.667104,85.1426649 L249.875038,84.3432032 C252.144202,84.3432032 253.612485,85.6756393 254.279887,88.3405114 C254.680327,91.0053836 255.547949,92.3378197 256.882752,92.3378197 C257.550153,92.0713324 258.150814,91.8048452 258.684735,91.538358 C259.352136,91.0053836 260.086278,90.6056528 260.887159,90.3391655 C262.355442,90.3391655 263.823725,91.7382234 265.292008,94.5363392 C266.76029,97.3344549 268.095093,98.7335128 269.296415,98.7335128 C269.963817,98.6002692 270.697958,98.4004038 271.498839,98.1339166 C272.03276,97.8674293 272.700162,97.6675639 273.501043,97.5343203 C274.568885,97.5343203 275.503247,98.2005384 276.304129,99.5329744 C277.505451,101.265141 278.439813,102.664199 279.107214,103.730148 C283.512062,104.662853 287.31625,107.727456 290.519776,112.923957 Z M291.520878,158.09354 C293.389601,158.09354 294.791144,159.092867 295.725506,161.091521 L295.725506,171.684388 C295.058105,171.551144 294.390703,171.4179 293.723302,171.284657 C293.189381,171.151413 292.58872,171.084791 291.921319,171.084791 L288.517572,173.283311 L294.924624,176.481157 L293.723302,182.077389 L295.725506,194.868775 L294.323963,199.065949 L291.520878,198.666218 L289.118233,199.065949 C289.118233,199.732167 289.051493,200.331763 288.918013,200.864738 C288.784533,201.264468 288.651052,201.730821 288.517572,202.263795 L294.924624,204.462315 L290.319555,209.059219 L293.122641,214.455585 C291.387398,215.521534 289.318454,216.587483 286.915809,217.653432 C283.845763,219.119112 282.777921,221.251009 283.712283,224.049125 L276.90479,219.452221 L274.702366,221.850606 C275.102806,222.650067 275.636727,223.516151 276.304129,224.448856 L276.304129,228.246299 L264.691346,231.24428 C260.953899,232.310229 259.085176,234.908479 259.085176,239.039031 L264.691346,251.030956 C262.155222,250.897712 259.886057,248.899058 257.883853,245.034993 L247.272173,244.035666 C247.672614,241.104307 247.138693,239.039031 245.67041,237.839838 L240.064239,239.438762 C239.129878,239.305518 238.395736,239.105653 237.861815,238.839166 C237.060934,238.705922 236.260052,238.572678 235.459171,238.439435 L234.458069,231.24428 L231.454763,232.243607 C230.653881,232.643338 229.78626,232.976447 228.851898,233.242934 C227.250135,232.176985 225.648372,230.51144 224.046609,228.246299 L218.840879,221.850606 L222.645066,217.453567 L219.041099,206.061238 L219.041099,201.064603 L225.247931,201.064603 C225.381411,200.664872 225.514891,200.19852 225.648372,199.665545 C225.915332,199.132571 226.115553,198.532974 226.249033,197.866756 L218.840879,193.269852 L222.845286,191.870794 C222.444846,189.87214 221.377004,187.940108 219.64176,186.074697 C219.775241,185.008748 220.042201,184.142665 220.442642,183.476447 C220.709602,182.676985 220.909823,181.877524 221.043303,181.078062 C222.645066,181.74428 224.113349,183.543069 225.448151,186.474428 C226.782954,189.405787 227.917536,190.871467 228.851898,190.871467 C233.657187,190.871467 237.995295,188.806191 241.866223,184.675639 L247.672614,186.274563 L250.075258,180.078735 L257.683633,184.275908 L258.684735,181.477793 C258.684735,180.145357 257.883853,179.279273 256.28209,178.879542 L266.29311,173.083445 L276.90479,168.886272 C277.839152,169.55249 279.307434,170.28533 281.309638,171.084791 C282.644441,169.619112 283.311842,167.953567 283.311842,166.088156 L282.911401,163.689771 C283.979243,163.689771 285.781227,164.888964 288.317352,167.287349 L291.520878,167.287349 L292.121539,161.890983 L291.520878,158.09354 Z M244.068647,213.855989 L247.872834,213.855989 L247.872834,209.259085 C244.402348,209.259085 242.667104,210.125168 242.667104,211.857335 C243.067545,212.39031 243.534726,213.056528 244.068647,213.855989 Z M263.690245,228.246299 C263.690245,226.780619 263.022843,225.381561 261.688041,224.049125 C259.018436,224.848587 257.550153,226.247645 257.283192,228.246299 L263.690245,228.246299 Z M255.481209,234.042396 C251.877242,235.241588 250.075258,236.374159 250.075258,237.440108 L254.480107,240.038358 C254.880548,239.905114 255.214248,239.771871 255.481209,239.638627 L255.481209,234.042396 Z M252.477903,232.043742 C253.812706,230.844549 254.480107,229.445491 254.480107,227.846568 L252.477903,226.047779 L248.073055,226.647376 L248.073055,230.244953 L252.477903,232.043742 Z M263.690245,217.453567 L266.69355,218.053163 L270.097297,217.253701 C269.563376,215.255047 267.828132,213.855989 264.891567,213.056528 L263.690245,217.453567 Z M259.685837,220.451548 C259.952797,218.985868 260.086278,217.453567 260.086278,215.854643 L255.681429,215.854643 C255.547949,216.254374 255.481209,216.587483 255.481209,216.85397 C255.481209,219.252355 256.882752,220.451548 259.685837,220.451548 Z M274.101704,215.454913 L278.306332,215.454913 L273.100603,211.257739 L274.101704,215.454913 Z M271.498839,224.049125 C271.231879,223.249664 271.031659,222.38358 270.898178,221.450875 L265.492228,225.248318 L270.497738,226.847241 C271.165139,226.847241 271.56558,226.780619 271.69906,226.647376 C271.56558,225.71467 271.498839,224.848587 271.498839,224.049125 Z M239.063137,232.043742 C239.997499,232.176985 240.865121,232.443472 241.666002,232.843203 C242.466884,232.976447 243.334506,233.10969 244.268867,233.242934 L245.269969,229.645357 C243.935167,228.179677 242.533624,227.446837 241.065341,227.446837 C239.730539,228.912517 239.063137,230.444818 239.063137,232.043742 Z M229.652779,218.452894 L230.854102,214.25572 C230.453661,213.589502 230.05322,212.923284 229.652779,212.257066 C226.048813,213.056528 224.246829,214.455585 224.246829,216.45424 L229.652779,218.452894 Z M233.456967,223.449529 C232.122164,222.117093 230.653881,221.450875 229.052118,221.450875 L228.251237,226.647376 C228.651677,226.780619 229.118858,226.913863 229.652779,227.047106 C230.1867,227.313594 230.787362,227.446837 231.454763,227.446837 C232.789565,226.247645 233.456967,224.915209 233.456967,223.449529 Z M246.471292,217.653432 L245.67041,222.250336 L250.87614,222.849933 L250.87614,217.653432 L246.471292,217.653432 Z M242.667104,220.451548 L238.262256,219.452221 C237.060934,220.784657 236.460272,222.183715 236.460272,223.649394 L241.666002,224.448856 L242.667104,220.451548 Z M240.064239,212.257066 L234.458069,211.257739 C235.12547,214.322342 236.527013,216.054509 238.662697,216.45424 L240.064239,212.257066 Z M233.256746,202.06393 L231.054322,205.061911 C231.054322,205.461642 231.321283,205.994616 231.855204,206.660834 L237.060934,206.660834 C237.194414,204.795424 235.926351,203.263122 233.256746,202.06393 Z M234.458069,198.266487 C234.458069,196.667564 233.657187,195.201884 232.055424,193.869448 C229.91974,194.935397 228.851898,196.401077 228.851898,198.266487 L232.055424,199.065949 L234.458069,198.266487 Z M244.669308,200.864738 C244.001907,200.59825 243.467986,200.331763 243.067545,200.065276 C241.732743,201.264468 240.731641,202.463661 240.064239,203.662853 L245.269969,205.461642 L246.271071,201.464334 C245.73715,201.33109 245.203229,201.131225 244.669308,200.864738 Z M239.463578,191.870794 L238.062035,195.268506 C239.530318,196.734186 241.065341,197.467026 242.667104,197.467026 L243.467986,193.269852 L239.463578,191.870794 Z M221.643964,207.860027 C222.444846,209.45895 223.779648,210.19179 225.648372,210.058546 C228.985378,209.525572 230.05322,209.259085 228.851898,209.259085 L225.848592,203.662853 C223.045507,205.261777 221.643964,206.660834 221.643964,207.860027 Z M269.897076,190.871467 L270.898178,187.67362 L265.892669,185.674966 C265.492228,189.1393 266.827031,190.871467 269.897076,190.871467 Z M281.309638,212.856662 C281.843559,212.989906 282.37748,213.189771 282.911401,213.456258 C283.445322,213.722746 284.112724,213.855989 284.913605,213.855989 C286.648848,213.855989 287.51647,212.79004 287.51647,210.658143 L282.31074,209.259085 L281.309638,212.856662 Z M279.307434,204.66218 L284.513164,204.66218 C284.513164,203.063257 283.912503,201.530956 282.711181,200.065276 C281.242898,200.59825 280.108316,202.130552 279.307434,204.66218 Z M275.303027,207.460296 C275.303027,206.394347 275.169546,205.461642 274.902586,204.66218 C274.635625,203.729475 274.502145,202.863392 274.502145,202.06393 C271.165139,202.863392 269.496636,204.66218 269.496636,207.460296 L275.303027,207.460296 Z M271.69906,199.065949 L272.900382,194.868775 L268.495534,193.869448 L267.494432,198.266487 L271.69906,199.065949 Z M276.103908,195.268506 C276.237389,195.80148 276.437609,196.201211 276.704569,196.467699 C278.706773,196.467699 280.508757,195.40175 282.11052,193.269852 L277.705671,191.870794 L276.103908,195.268506 Z M255.681429,191.870794 L261.688041,191.870794 C261.688041,190.271871 261.020639,188.739569 259.685837,187.27389 C257.016232,188.606326 255.681429,190.138627 255.681429,191.870794 Z M260.086278,208.259758 C261.42108,209.592194 263.490024,210.258412 266.29311,210.258412 L266.29311,206.061238 C265.358748,204.995289 264.357646,204.195828 263.289804,203.662853 C261.15412,204.862046 260.086278,206.394347 260.086278,208.259758 Z M251.877242,210.058546 L257.082972,212.257066 L257.883853,208.459623 C256.682531,207.260431 255.347729,206.660834 253.879446,206.660834 L251.877242,210.058546 Z M255.481209,200.465007 C255.080768,199.932032 254.747067,199.265814 254.480107,198.466353 C251.00962,199.399058 249.274377,200.465007 249.274377,201.664199 L253.078564,203.662853 L255.481209,200.465007 Z M252.678123,194.469044 C252.544643,193.536339 252.477903,192.670256 252.477903,191.870794 C252.210943,191.204576 252.010722,190.338493 251.877242,189.272544 L246.271071,193.669583 L251.07636,194.868775 C251.610281,194.868775 252.144202,194.735532 252.678123,194.469044 Z M264.290906,198.266487 C264.023945,197.467026 263.823725,196.667564 263.690245,195.868102 C260.753679,197.200538 259.018436,198.532974 258.484515,199.86541 L262.488922,201.064603 L264.691346,200.864738 C264.557866,199.798789 264.424386,198.932705 264.290906,198.266487 Z M263.890465,176.481157 L262.088481,181.877524 L268.295313,181.877524 C267.360952,178.279946 265.892669,176.481157 263.890465,176.481157 Z M284.312944,183.276581 C283.912503,183.809556 283.712283,184.542396 283.712283,185.475101 L288.517572,182.47712 L284.913605,181.078062 C284.780125,181.74428 284.579905,182.47712 284.312944,183.276581 Z M273.901484,187.074024 L278.106112,188.473082 C278.506553,188.473082 278.906994,188.273217 279.307434,187.873486 C279.173954,187.207268 279.107214,185.874832 279.107214,183.876178 L274.702366,183.876178 L273.901484,187.074024 Z M275.303027,174.682369 L271.298619,175.681696 L271.298619,179.279273 L275.303027,180.878197 C276.77131,179.54576 277.505451,178.213324 277.505451,176.880888 L275.303027,174.682369 Z M286.515368,174.882234 L281.309638,171.884253 L280.508757,177.280619 L285.314046,178.080081 L286.515368,174.882234 Z M291.120437,193.669583 C291.120437,192.070659 290.386296,190.60498 288.918013,189.272544 C286.915809,190.338493 285.914707,191.804172 285.914707,193.669583 L291.120437,193.669583 Z M277.505451,148.300135 L272.099501,148.300135 C273.701264,151.631225 275.436507,153.29677 277.305231,153.29677 C277.705671,153.29677 278.039372,153.29677 278.306332,153.29677 L277.505451,148.300135 Z M270.097297,144.502692 C273.567783,143.569987 275.303027,142.037685 275.303027,139.905787 L270.497738,138.90646 C270.230777,140.37214 270.097297,142.23755 270.097297,144.502692 Z M260.086278,145.102288 L265.292008,147.100942 C266.49333,145.768506 267.093991,144.369448 267.093991,142.903769 L263.289804,140.905114 C261.15412,141.704576 260.086278,143.103634 260.086278,145.102288 Z M260.887159,124.516151 L256.882752,124.516151 L255.481209,127.713997 L260.686939,128.713324 C260.820419,127.514132 260.887159,126.115074 260.887159,124.516151 Z M264.691346,136.108345 L262.488922,132.710633 L258.484515,132.710633 L258.484515,136.907806 C259.018436,137.04105 259.552357,137.107672 260.086278,137.107672 L264.691346,136.108345 Z M253.479005,134.309556 C251.476801,134.309556 249.674818,135.708614 248.073055,138.506729 C249.007416,139.172948 250.008518,139.972409 251.07636,140.905114 C252.678123,140.905114 254.146406,140.105653 255.481209,138.506729 L253.479005,134.309556 Z M252.678123,118.520188 C254.012926,119.852624 255.481209,120.518843 257.082972,120.518843 L259.085176,118.520188 C259.085176,116.388291 257.349932,115.322342 253.879446,115.322342 L252.678123,118.520188 Z M283.712283,137.107672 L279.307434,137.107672 L279.107214,138.106999 C279.107214,140.37214 280.642237,141.504711 283.712283,141.504711 L283.712283,137.107672 Z M276.704569,128.113728 L275.903688,131.51144 C277.10501,132.710633 278.439813,133.310229 279.908096,133.310229 C280.708977,132.377524 281.443118,131.244953 282.11052,129.912517 L276.704569,128.113728 Z M271.69906,134.509421 L268.895974,129.712651 L266.69355,133.310229 C269.229675,134.642665 270.898178,135.042396 271.69906,134.509421 Z M273.901484,124.11642 L278.106112,124.11642 C278.906994,123.450202 279.307434,122.384253 279.307434,120.918573 C278.906994,120.385599 278.506553,119.719381 278.106112,118.919919 C274.769106,119.586137 273.100603,120.718708 273.100603,122.317631 C273.100603,122.717362 273.367563,123.316958 273.901484,124.11642 Z M270.097297,126.914536 L270.097297,122.317631 L265.892669,121.51817 L264.691346,126.115074 C265.625708,126.115074 266.56007,126.248318 267.494432,126.514805 C268.295313,126.648048 269.162935,126.781292 270.097297,126.914536 Z M282.11052,120.119112 L284.312944,122.317631 L288.517572,119.31965 C288.384092,118.653432 287.983651,117.920592 287.31625,117.121131 C283.845763,117.787349 282.11052,118.786676 282.11052,120.119112 Z M220.642862,120.518843 L219.64176,115.322342 C217.372596,115.98856 215.637353,116.788022 214.43603,117.720727 L216.438234,121.51817 L220.642862,120.518843 Z M230.453661,127.713997 L231.454763,122.717362 L227.450355,121.51817 C225.982072,121.51817 225.247931,122.584118 225.247931,124.716016 C225.247931,126.71467 226.983174,127.713997 230.453661,127.713997 Z M247.672614,126.115074 L246.271071,130.312248 L250.87614,131.711306 L251.877242,126.115074 L247.672614,126.115074 Z M242.667104,128.113728 L238.262256,128.113728 L237.261154,132.310902 L243.267765,133.310229 C243.134285,132.377524 243.067545,131.51144 243.067545,130.711978 C242.934065,129.912517 242.800585,129.046433 242.667104,128.113728 Z M238.062035,125.115747 C239.797279,125.115747 240.6649,124.049798 240.6649,121.9179 L235.659391,119.919246 L234.458069,124.11642 C234.99199,124.249664 235.525911,124.449529 236.059832,124.716016 C236.593753,124.84926 237.261154,124.982503 238.062035,125.115747 Z M244.669308,122.317631 L246.871732,122.717362 L249.875038,121.118439 L247.872834,117.121131 C245.73715,117.787349 244.669308,119.519515 244.669308,122.317631 Z M228.851898,114.722746 L225.648372,112.524226 C224.313569,113.989906 223.312467,115.322342 222.645066,116.521534 L227.850796,118.919919 L228.851898,114.722746 Z M241.065341,112.923957 L246.271071,114.323015 L247.272173,109.72611 L243.067545,108.726783 C241.732743,110.059219 241.065341,111.458277 241.065341,112.923957 Z M237.261154,113.723419 L237.060934,110.725437 C234.257848,112.057873 232.522605,113.39031 231.855204,114.722746 C232.923046,116.7214 233.990888,117.720727 235.05873,117.720727 C236.527013,117.720727 237.261154,116.388291 237.261154,113.723419 Z M229.052118,105.528937 C229.052118,107.12786 231.054322,107.927322 235.05873,107.927322 L235.659391,105.528937 L234.057628,102.131225 C230.720621,102.930686 229.052118,104.063257 229.052118,105.528937 Z M228.251237,99.5329744 L232.455865,99.5329744 L232.455865,94.1366083 C231.788463,94.1366083 231.254542,94.0699865 230.854102,93.9367429 C230.320181,93.6702557 229.71952,93.5370121 229.052118,93.5370121 L227.850796,97.3344549 L228.251237,99.5329744 Z M238.062035,96.9347241 L242.667104,95.7355316 C242.266664,92.9374159 240.46468,91.538358 237.261154,91.538358 L236.059832,94.1366083 L236.460272,96.5349933 C236.994193,96.8014805 237.528114,96.9347241 238.062035,96.9347241 Z M244.268867,101.531629 L239.463578,100.532301 C238.929657,103.463661 240.19772,105.195828 243.267765,105.728802 L244.268867,101.531629 Z M221.844184,104.129879 C220.375902,104.129879 219.64176,105.26245 219.64176,107.527591 C220.175681,108.460296 220.909823,109.393001 221.844184,110.325707 L226.849694,109.526245 C227.116655,108.460296 226.649474,107.261104 225.448151,105.928668 L221.844184,104.129879 Z M234.858509,83.1440108 L233.456967,87.3411844 C235.726131,87.3411844 237.261154,87.474428 238.062035,87.7409152 L234.858509,83.1440108 Z M249.875038,94.93607 L250.87614,89.7395693 L246.471292,89.7395693 L244.669308,93.1372813 L249.875038,94.93607 Z M284.312944,107.927322 C281.776819,109.393001 280.508757,110.792059 280.508757,112.124495 L282.711181,113.323688 L284.513164,112.324361 L285.314046,110.125841 L284.312944,107.927322 Z M276.304129,111.724764 L272.099501,110.725437 L271.298619,114.922611 C271.83254,115.055855 272.366461,115.25572 272.900382,115.522207 C273.434303,115.655451 273.968224,115.788694 274.502145,115.921938 C275.703468,114.589502 276.304129,113.190444 276.304129,111.724764 Z M273.901484,106.328398 L272.900382,102.530956 C270.230777,101.997981 268.695754,102.997308 268.295313,105.528937 L270.497738,107.927322 L273.901484,106.328398 Z M267.093991,113.723419 C266.69355,113.590175 266.159629,113.39031 265.492228,113.123822 C264.958307,112.857335 264.424386,112.65747 263.890465,112.524226 L262.088481,117.720727 C262.622402,117.720727 263.156324,117.85397 263.690245,118.120458 C264.224166,118.386945 264.758087,118.520188 265.292008,118.520188 L267.093991,113.723419 Z M260.286498,108.726783 L265.492228,108.726783 C264.023945,105.66218 262.689143,104.129879 261.48782,104.129879 L259.685837,107.12786 C259.685837,107.660834 259.886057,108.193809 260.286498,108.726783 Z M250.87614,111.325034 C251.410061,111.458277 252.010722,111.591521 252.678123,111.724764 L256.28209,110.325707 C256.28209,108.860027 255.547949,107.460969 254.079666,106.128533 C251.943982,106.261777 250.87614,107.993943 250.87614,111.325034 Z M249.274377,97.9340511 L248.073055,102.131225 L252.477903,103.330417 L253.479005,98.7335128 L249.274377,97.9340511 Z M261.688041,101.131898 L261.688041,95.935397 L257.283192,95.935397 L256.28209,100.332436 C257.216452,100.332436 258.150814,100.532301 259.085176,100.932032 C259.752577,101.065276 260.620199,101.131898 261.688041,101.131898 Z M289.118233,130.711978 L290.319555,126.514805 C289.785634,126.381561 289.184973,126.181696 288.517572,125.915209 C287.983651,125.648721 287.44973,125.382234 286.915809,125.115747 L284.913605,128.713324 C286.248408,130.04576 287.64995,130.711978 289.118233,130.711978 Z" id="Shape" fill-rule="nonzero"></path>
        </g>
    </g>
</svg>